<?xml version="1.0" encoding="utf-8"?>
<!-- Generator: Adobe Illustrator 24.1.2, SVG Export Plug-In . SVG Version: 6.00 Build 0)  -->
<svg version="1.1" id="Layer_1" xmlns="http://www.w3.org/2000/svg" xmlns:xlink="http://www.w3.org/1999/xlink" x="0px" y="0px"
	 viewBox="0 0 1101 383" style="enable-background:new 0 0 1101 383;" xml:space="preserve">
<style type="text/css">
	.st0{fill-rule:evenodd;clip-rule:evenodd;fill:#FFFFFF;}
</style>
<path class="st0" d="M156.7,143.8l0.7,0.7h200.2l0.8-0.8L156.7,143.8z M849.7,336.6L849.7,336.6l4,0
	C852.3,336.7,851,336.7,849.7,336.6z M853.7,336.7c1.5,0,3.1,0,4.8,0H853.7z M535.9,192.1c-13.3,0-20,5.5-19.9,16.4
	c0,13,7,19.5,21,19.5c5.1,0.1,10-2,13.6-5.7c3.7-3.6,5.7-8.6,5.6-13.8C556.1,197.6,549.4,192.1,535.9,192.1z"/>
<polygon class="st0" points="685.7,127.8 589.2,162.7 588,152.1 685.1,117.2 "/>
<path class="st0" d="M147.2,30.5C82.8,30.5,30.5,82.8,30.5,147.2c-0.4-0.1-30-0.2-30.4,0C0,66.1,66.1,0,147.2,0
	C147.4,1.7,147,29.3,147.2,30.5z"/>
<path class="st0" d="M147.2,85.6c-34,0-61.6,27.6-61.6,61.6c-0.7,0.3-28.3-0.2-28.7,0C57,97.4,97.4,57,147.2,57
	C147.1,57.2,147.4,85.5,147.2,85.6z"/>
<path class="st0" d="M367,118H149c-19.3,0-35,15.7-35,35v149c0,19.3,15.7,35,35,35h218c19.3,0,35-15.7,35-35V153
	C402,133.7,386.3,118,367,118z M357.6,144.5l-93.1,93.1c-3.8,3.8-10.1,3.8-13.9,0l-93.1-93.1l-0.7-0.7l201.7-0.1L357.6,144.5z
	 M375.5,300.5c0,5.5-4.5,10-10,10H150.5c-5.5,0-10-4.5-10-10V165.2l92.6,92.6c13.4,13.4,35.2,13.4,48.6,0c0,0,0,0,0,0l93.7-93.7
	V300.5z"/>
<path class="st0" d="M841,365.8c0.1,4.4-1.7,8.7-5.1,11.7c-3.3,3-7.6,4.7-12.1,4.6c-4.8,0.1-9.5-1.4-13.4-4.3
	c-3.9-2.7-6.2-7.2-6.1-12c0-10.1,5.9-15.2,17.6-15.2v0C834.6,350.6,841,355.7,841,365.8z"/>
<path class="st0" d="M796.7,365.8c0.1,4.4-1.7,8.7-5.1,11.7c-3.3,3-7.6,4.7-12.1,4.6c-4.8,0.1-9.5-1.4-13.3-4.3
	c-3.9-2.7-6.2-7.2-6.1-12c0-10.1,5.9-15.2,17.7-15.2v0C790.3,350.6,796.7,355.7,796.7,365.8z"/>
<path class="st0" d="M1100.9,309v27.6H853.7c-1.4,0-2.7,0-4,0c-7-0.2-12.5-0.6-16.6-1.3c-4.4-1.7-9.1-4.9-14-9.4
	c-8.8,7.2-17.5,10.7-26.2,10.7h-50.5v0.6c-22.7-0.2-38.8-7.6-48.2-22.4c-6.3,14.7-18.1,22-35.1,21.9l-72.8-0.5v0.5h-9
	c-17.4,0-30.2-3.6-38.4-10.7c-9.2,7.2-18.1,10.7-26.5,10.7h-45.4v-0.5c-16.7-1.4-29-5.7-36.7-13c-6.3-5.8-9.5-15.4-9.5-28.7V117.3
	h27.6v165c0,12.8,2.1,20.6,6.4,23.5c2.7,1.7,10.9,2.8,24.7,3.2v0.1c20.7-0.2,32.6-0.8,35.6-2c6.1-2.2,9.2-10.4,9.2-24.6V250h27.6v38
	c0,11.8,8.6,18.7,25.8,20.7l82,0.6c9.4,0.1,14.1-3.4,14.2-10.4c0-3.5-2.1-7.5-6.4-12l-71.8-76.1l-4.4-31.1l101.7-36l4.3,27.6
	l-73.9,27.1l76.5,85.1c5.4,6.1,13.4,13.8,24.1,23.2c2.6,1.3,5.7,2.2,9.4,2.7v-0.2h51.1c7.7,0,13-1.6,15.9-4.7
	c3-3.1,4.5-8.6,4.5-16.5v-38h27.6v38c0,9.1,2.2,15.1,6.5,18c2.6,1.7,7.1,2.7,13.7,3.1H1100.9z"/>
</svg>
